<svg id="Layer_1" data-name="Layer 1" xmlns="http://www.w3.org/2000/svg" xmlns:xlink="http://www.w3.org/1999/xlink" viewBox="0 0 250 250"><defs><style>.cls-1{fill-rule:evenodd;fill:url(#linear-gradient);}</style><linearGradient id="linear-gradient" x1="-1225.65" y1="104.95" x2="-1033.58" y2="104.95" gradientTransform="matrix(1, 0, 0, -1, 1255, 229)" gradientUnits="userSpaceOnUse"><stop offset="0" stop-color="#5000ff"/><stop offset="1" stop-color="#cd00ff"/></linearGradient></defs><title>iconsForMenu</title><path class="cls-1" d="M221.14,163.27V89.71c0-5.53.23-11.2-1.28-15.15a21.81,21.81,0,0,0-17.92-14.28l-16.57-.12h-28.1c.13-18.28-14.26-16-32-16s-32.09-2.28-31.91,16H62.3c-5.21,0-11.48-.52-15.87.53a23.24,23.24,0,0,0-9.84,5.21c-8,6.83-7.08,17.39-7.08,32.07v63.72c0,10.93-1.17,24.14,2.87,31.08,8,13.8,22.92,11,43.85,11H190.52c4.88,0,10.54.39,14.41-.71a21.94,21.94,0,0,0,14.93-13.69C222.3,182.94,221.14,171.73,221.14,163.27ZM106.91,56h27.46c2.13,0,9-.54,10.23.29.75.52,1.51,16.62.71,18.52s-6,1.18-8.65,1.18H113.2c-2.54,0-6.93.66-7.7-1.18l-.06-17.52A2.39,2.39,0,0,1,106.91,56ZM207.74,187.14a10.29,10.29,0,0,1-5.8,4.33c-2.67.78-6.82.35-10.06.35H60.42c-3.64,0-8.42.55-11.47-.35-9.46-2.79-7.25-14.22-7.25-26V87.38c0-2.94-.3-6.48.53-8.66A10.09,10.09,0,0,1,49,72.46c3.56-1,9.16-.35,13.34-.35H93.53c-.13,18.25,14.26,16,32,16s32.06,2.26,31.88-16l43.53.12a11,11,0,0,1,5.21,2.57c4.83,4.12,3.1,17.38,3.1,26.1v61.37C209.2,169.35,210.5,182.72,207.74,187.14ZM91,139.89c25-2.88,24.15-39.49-1.76-39.9l-5.2.76a19.9,19.9,0,0,0-13.34,12.52C65.59,126.84,77.21,141.48,91,139.89ZM84.18,114a10.64,10.64,0,0,1,4.74-2c10.86-.19,11.29,14.75,1.06,16C82.12,128.9,79.05,118.27,84.18,114Zm62.42-9.92h38.06c6.48,0,13.86-.3,12.54,7a6.09,6.09,0,0,1-3.93,4.68c-2.44.9-6.84.29-9.84.29H157.14c-3.94,0-10.16.79-12.82-.76C138.94,112.12,141.32,105.57,146.6,104.05Zm.34,31.94h37.59c6.49,0,13.76-.29,12.53,6.93a6.07,6.07,0,0,1-3.67,4.61c-2.36,1-6.8.4-9.85.4H157.2c-4,0-10.18.77-12.82-.81C139,143.87,141.57,137.42,146.94,136Zm-24.11,23.6c1.67,3,4.43,12.94,1.81,17.33-1.78,3-6.84,4-9.54,1.12s-.82-10.24-3.46-13.94a10.19,10.19,0,0,0-5.5-3.87c-3.25-.92-8.27-.35-12.12-.35H75.1c-5,.57-8.33,3.38-9.37,7.91-1.31,5.68,1.33,9.63-4,11.65a6.72,6.72,0,0,1-4.45,0c-4.41-1.88-4.45-9.7-3-15.17A21.8,21.8,0,0,1,68,149.22c1.89-.71,3.91-.74,6.14-1.29H95.6c5.08,0,10.55-.24,14.4.94A21.79,21.79,0,0,1,122.83,159.59ZM197.2,174.9a6.09,6.09,0,0,1-3.93,4.68c-2.44.89-6.84.29-9.84.29H157.14c-3.94,0-10.16.79-12.82-.76-5.38-3.11-3-9.66,2.28-11.18h38.12C191.18,167.93,198.51,167.65,197.2,174.9Z"/></svg>