<?xml version="1.0" encoding="utf-8"?>
<!-- Generator: Adobe Illustrator 23.0.0, SVG Export Plug-In . SVG Version: 6.00 Build 0)  -->
<svg version="1.1" id="Layer_1" xmlns="http://www.w3.org/2000/svg" xmlns:xlink="http://www.w3.org/1999/xlink" x="0px" y="0px"
	 viewBox="0 0 1200 1200" style="enable-background:new 0 0 1200 1200;" xml:space="preserve">
<style type="text/css">
	.st0{fill-rule:evenodd;clip-rule:evenodd;fill:url(#SVGID_1_);}
</style>
<linearGradient id="SVGID_1_" gradientUnits="userSpaceOnUse" x1="206.2317" y1="600.6475" x2="993.5258" y2="600.6475">
	<stop  offset="6.357828e-08" style="stop-color:#5000FF"/>
	<stop  offset="1" style="stop-color:#CD00FF"/>
</linearGradient>
<path class="st0" d="M992.4,761.52c0-73.35,0-146.73,0-220.08c0-27.2,0-54.4,0-81.6c0-22.71,0.91-45.95-5.28-62.16
	c-11.76-30.81-36.43-53.05-73.44-58.56c-22.64-0.16-45.28-0.32-67.92-0.48c-38.4,0-76.8,0-115.2,0
	c0.54-74.96-58.42-65.52-131.04-65.52c-72.42,0-131.51-9.33-130.8,65.52c-42.48,0-84.96,0-127.44,0c-21.35,0-47.06-2.15-65.04,2.16
	c-16.48,3.95-29.27,11.95-40.32,21.36c-32.88,28.01-29.04,71.32-29.04,131.52c0,87.11,0,174.25,0,261.36
	c0,44.82-4.81,98.99,11.76,127.44c32.96,56.6,93.97,45.12,179.76,45.12c119.51,0,239.05,0,358.56,0c36.64,0,73.28,0,109.92,0
	c19.98,0,43.18,1.62,59.04-2.88c29.65-8.42,50.71-28.56,61.2-56.16C997.15,842.17,992.4,796.2,992.4,761.52z M524.16,322.32
	c37.36,0,74.72,0,112.08,0c8.67,0,36.8-2.21,41.76,1.2c3.06,2.1,6.15,67.84,2.88,75.6c-3.3,7.85-24.43,4.8-35.28,4.8
	c-31.92,0-63.84,0-95.76,0c-10.37,0-28.28,2.7-31.44-4.8c-0.08-23.84-0.16-47.68-0.24-71.52
	C519.13,324.8,521.55,323.54,524.16,322.32z M937.2,859.44c-5.13,8.18-13.5,14.76-23.76,17.76c-10.98,3.21-27.97,1.44-41.28,1.44
	c-30.4,0-60.8,0-91.2,0c-113.51,0-227.05,0-340.56,0c-35.84,0-71.68,0-107.52,0c-14.94,0-34.55,2.24-47.04-1.44
	c-38.84-11.44-29.76-58.33-29.76-106.8c0-82.39,0-164.81,0-247.2c0-24.32,0-48.64,0-72.96c0-12.04-1.21-26.58,2.16-35.52
	c4.68-12.42,14.39-21.81,27.6-25.68c14.59-4.27,37.56-1.44,54.72-1.44c42.72,0,85.44,0,128.16,0
	c-0.54,74.88,58.47,65.52,131.04,65.52c72.36,0,131.51,9.25,130.8-65.52c59.51,0.16,119.05,0.32,178.56,0.48
	c8.88,1.65,15.66,5.71,21.36,10.56c19.84,16.89,12.72,71.27,12.72,107.04c0,83.91,0,167.85,0,251.76
	C943.2,786.46,948.55,841.32,937.2,859.44z M458.4,665.76c102.38-11.81,99.04-161.97-7.2-163.68c-7.12,1.04-14.24,2.08-21.36,3.12
	c-26.48,7.7-45.41,26.44-54.72,51.36C354.32,612.23,401.98,672.27,458.4,665.76z M430.56,559.44c5.5-4.61,11.03-6.08,19.44-8.16
	c44.53-0.79,46.31,60.49,4.32,65.52C422.11,620.66,409.52,577.08,430.56,559.44z M686.64,518.64c51.99,0,104.01,0,156,0
	c26.54,0,56.78-1.24,51.36,28.56c-1.7,9.33-7.99,16.25-16.08,19.2c-10.02,3.66-28.06,1.2-40.32,1.2c-35.92,0-71.84,0-107.76,0
	c-16.14,0-41.63,3.22-52.56-3.12C655.25,551.71,665,524.87,686.64,518.64z M687.6,649.44c51.59,0,103.21,0,154.8,0
	c26.75,0,56.66-1.19,51.6,28.56c-1.53,9.01-7.61,15.9-15.12,18.96c-9.72,3.96-27.97,1.68-40.56,1.68c-36.16,0-72.32,0-108.48,0
	c-16.4,0-41.89,3.16-52.8-3.36C654.7,681.92,665.47,655.35,687.6,649.44z M588.96,746.4c6.85,12.19,18.18,53.05,7.44,71.04
	c-7.33,12.28-28.04,16.22-39.12,4.56c-11.56-12.16-3.35-41.93-14.16-57.12c-5.13-7.21-13-13.13-22.56-15.84
	c-13.33-3.79-33.89-1.44-49.68-1.44c-25.84,0-51.68,0-77.52,0c-20.66,2.32-34.13,13.85-38.4,32.4c-5.37,23.3,5.44,39.47-16.56,47.76
	c-5.11,1.92-13.04,2.21-18.24,0c-18.06-7.69-18.24-39.74-12.24-62.16c7.98-29.82,28.64-51.35,56.16-61.68
	c7.75-2.91,16.03-3.03,25.2-5.28c29.36,0,58.72,0,88.08,0c20.84,0,43.24-0.99,59.04,3.84C560.72,709.91,577.48,725.99,588.96,746.4z
	 M894,809.04c-1.7,9.33-7.99,16.25-16.08,19.2c-10.02,3.66-28.06,1.2-40.32,1.2c-35.92,0-71.84,0-107.76,0
	c-16.14,0-41.63,3.22-52.56-3.12c-22.03-12.77-12.28-39.61,9.36-45.84c52.07,0,104.17,0,156.24,0
	C869.35,780.48,899.4,779.33,894,809.04z"/>
</svg>
