<svg id="Layer_1" data-name="Layer 1" xmlns="http://www.w3.org/2000/svg" xmlns:xlink="http://www.w3.org/1999/xlink" viewBox="0 0 500 500"><defs><style>.cls-1{fill-rule:evenodd;fill:url(#linear-gradient);}</style><linearGradient id="linear-gradient" x1="-912.32" y1="604.39" x2="-535" y2="604.39" gradientTransform="matrix(1, 0, 0, -1, 973, 854)" gradientUnits="userSpaceOnUse"><stop offset="0" stop-color="#4136f1"/><stop offset="0.56" stop-color="#8017f9"/><stop offset="1" stop-color="#ae00ff"/></linearGradient></defs><title>IconResized</title><path class="cls-1" d="M421.94,211c-4.34-1.29-28.84-4-30-6.07-1-1.77-10-25.3-10-25.3l4.09-5.3c5.75-8,17.28-17.73,15.46-32.13-1.4-11.05-28.43-38.41-37.28-42.27a24.76,24.76,0,0,0-13-1.67c-13,2.14-21.95,14.06-32.06,19.86l-26.35-12.77-1.14-6.94c-1.66-10.27-2.83-22.66-8.48-29.09-9.61-10.94-34.61-7.94-55-7.88l-4.39,1.66a24.53,24.53,0,0,0-11.37,9.7c-3.24,5.4-5.54,32.78-7.72,34.85l-13.49,5-12.27,5.61-10.31-7.42c-9.61-6.86-20.67-17.69-36.36-9.1-6.82,3.74-11.84,11.48-17.43,16.67-6.77,6.29-19.16,14.39-17.43,28.49,1.56,12.63,13.42,25.2,20,33.94l-10.91,25.91-8.79,1.37c-14.2,2.92-26.14,3.41-32.88,13.63-4.57,6.92-5.55,44.39-1.82,54.1A23.74,23.74,0,0,0,76.45,289l31.07,5.91c1.22,1.06,9.11,21.83,10.76,25l-3.94,5.76c-5.86,8.1-14.08,15.94-15.76,27.73-.86,6,1.61,11.49,3.78,14.85l14,14.4,16.51,15.91c3.56,2.23,10,4.66,16.22,3.33,13.23-2.8,21.83-13.86,32.21-20l24.48,11.48c.44,2.6.89,5.19,1.34,7.79,1.68,10,2.72,21.87,7.88,28.49,3.28,4.22,8.35,6.39,13.79,8.48h13.64c17.45,0,33.64,1.56,41.51-7.87,7.6-9.11,6.13-25.83,10.25-38.68l27.23-8.49,3.89,2.92c7.45,5.32,15.19,13.25,25.31,15.3a23.86,23.86,0,0,0,17-3.48c7.19-4.78,30.59-28.1,33-36.52,4.55-15.71-8.4-27.31-14.55-35.76l-4.39-6.06s9.34-23.74,10.3-25.15c1.14-1.67,22.51-4.08,26.37-4.85,11.19-2.26,16-9,19.7-18.79V253.4C438,231.63,438.56,215.89,421.94,211Zm-5.61,57.07-9.7,1.82c-11.39,1.84-29.46,1.87-32.91,12L368,299.44c-2.27,5.25-10.29,15.66-9.25,22.3,1.2,7.74,22.9,29.8,21.53,34.12l-15,15.16-9.86,9.56c-3.17.74-25.88-18.72-30.94-20.93a11.89,11.89,0,0,0-6.67-.61L299,368.3l-20,6.82c-8.1,4.85-8,40.86-12.28,42.16H253c-3.8,0-20.32.74-21.53-.91l-1.67-9.25c-1.51-9.4-2-27.53-9-31.85l-19.11-6.52-19.32-9.35-5.55.4L145,381.34l-25.17-25c.69-8.36,18.28-22.66,21.08-31.84a12.23,12.23,0,0,0,0-6.52l-9.1-17.9q-3.35-9.78-6.67-19.56c-3.87-7.85-23-8.17-32.76-9.86l-9-1.67c-1.66-1.24-.91-17.71-.91-21.53V233.78c1-3.4,32.7-5.48,37.91-8.34l4.25-4.25q3.1-9.48,6.22-19,4.54-9.25,9.1-18.5c2.9-8.3-12.94-26-17-31.7l-4.4-6.52c-.08-1.24,22.58-24.34,25.18-25.78,3.35.63,5.59,3.47,8,5.16l23.05,15.92a11.82,11.82,0,0,0,7,.15l15.93-8.19c6.84-3.23,20.72-4.56,25-10.46,5.21-7.15,3.65-35.73,9.56-39.73L267,83c6.56,10.24,1,35.83,11.68,41.71l12.44,3.79c6.17,2.32,25.28,13.23,30.78,12.43,7.34-1.05,21-13.34,27-17.74l5.31-3.94h.6c.9,0,24.15,22.08,25.33,24.26,2.73,5-24.14,27.27-21.08,38.52l9.4,19.11,6.52,19.41,4.25,4.1c5.48,2.85,37.12,4.74,38.06,8.64C418.14,237,417.11,267.4,416.33,268.05ZM179.8,205.56c-3.64,2.47-8.39,17.86-10.61,22.73l-26.67,59.55.19.3,19.2.15L169.49,271l38,.15q3.57,8.56,7.13,17.12l19.9.16.1-.16Q216.4,247.16,198.13,206Zm21.29,51.06-25.45-.3,12.57-30.46c1.84,1.17,12.57,27.09,13,30.61Zm43.34-51.06c-1.6,1.57-.76,16.66-.76,20.46l.15,62.27,18.64.16.15-.16.46-23,23.48-.45c18.54-3.05,35.49-17.27,26.82-40.61C305.25,202.33,274.55,205.33,244.43,205.56Zm18.49,44.25c-.82-2.75-.45-28,.45-29.1,15.56-.24,29.28-1.23,32.28,11.22C299.91,249.63,279.06,252.63,262.92,249.81Zm67.87-44.25,18.19.3v82.43l-.16.16-18.63-.16q-.07-31.29-.16-62.58C330,222.11,329.28,206.89,330.79,205.56Z"/></svg>