<svg id="Layer_1" data-name="Layer 1" xmlns="http://www.w3.org/2000/svg" xmlns:xlink="http://www.w3.org/1999/xlink" viewBox="0 0 500 500"><defs><style>.cls-1{fill-rule:evenodd;fill:url(#linear-gradient);}</style><linearGradient id="linear-gradient" x1="-1402" y1="604" x2="-1066" y2="604" gradientTransform="matrix(1, 0, 0, -1, 1484, 854)" gradientUnits="userSpaceOnUse"><stop offset="0" stop-color="blue"/><stop offset="1" stop-color="#ae00ff"/></linearGradient></defs><title>IconResized</title><path class="cls-1" d="M410.87,82H89.31S82,82.46,82,89.14V408.6s-.14,9.4,7.56,9.4H411.05s6.95,0,6.95-7V89.14S417.88,82,410.87,82ZM399.75,399.75H101.08V174.92H223.56s3,.85,5.94-2.54,32.25-32.25,32.25-32.25a6.35,6.35,0,0,1,5.09-2.54H399.75Zm0-280.42H257.31a20.79,20.79,0,0,0-4.44,3c-1.42,1.48-34.23,34.34-34.23,34.34H101.08V101.08H399.75ZM224,197.4l-9,18.65-8.47,5.36-20.46-1.61a7.49,7.49,0,0,0-7,3.68l-19.88,34a7.45,7.45,0,0,0,.2,7.85l10.6,16.18v11.22l-10.45,15.17a7.46,7.46,0,0,0-.32,8c6.16,10.63,19.34,33.93,19.62,34.36,1.09,1.65,2.9,4.82,6.61,4.3,7.46-.05,21-2.07,21-2.07l9.11,5.51L225,376.62a7.46,7.46,0,0,0,6.64,4.05h38.76a7.45,7.45,0,0,0,6.76-4.32c3-6.4,8.17-17.68,8.17-18.14,0-.64,8.68-5.08,8.68-5.08l20.48.87a7.44,7.44,0,0,0,6.77-3.72l19.61-33.88a7.49,7.49,0,0,0-.17-7.75l-10.27-16.08-.21-11,10.41-16.17a7.43,7.43,0,0,0,.14-7.85l-20.13-33.88a7.48,7.48,0,0,0-6.92-3.63c-7,.47-19.67,1.3-20.28,1.09-.85-.28-9.32-6.49-9.32-6.49l-7.62-17a7.46,7.46,0,0,0-6.81-4.41h-39A7.5,7.5,0,0,0,224,197.4Zm12.19,18.1a4.16,4.16,0,0,1,3.78-2.42h21a4.18,4.18,0,0,1,3.78,2.42l5.42,11.76a4.07,4.07,0,0,0,1.52,1.74l16.17,10.49a4,4,0,0,0,2.48.66l16-.91a4.16,4.16,0,0,1,3.87,2.15L319.91,259a4.21,4.21,0,0,1-.14,4.27l-8.13,12.69a4.2,4.2,0,0,0-.66,2.31l.25,18.37A4.14,4.14,0,0,0,312,299l9.16,12.77a4.17,4.17,0,0,1,.13,4.66l-10.94,17.26a4.12,4.12,0,0,1-3.87,1.91l-14.92-1.33a4.11,4.11,0,0,0-2.64.66L270.64,347a4.21,4.21,0,0,0-1.57,1.92l-4.38,10.9a4.14,4.14,0,0,1-3.84,2.6H240.37a4.11,4.11,0,0,1-3.75-2.4l-6-12.86a4.09,4.09,0,0,0-1.6-1.79l-15.86-9.71a4.08,4.08,0,0,0-2.39-.59l-16.22.91a4.16,4.16,0,0,1-3.78-2l-10.27-17a4.18,4.18,0,0,1,.2-4.62L189.05,301a4.2,4.2,0,0,0,.8-2.46V278.27a4.11,4.11,0,0,0-.79-2.44c-2.59-3.57-10.65-14.74-9.94-14.74s8.73-14,11.8-19.37a4.15,4.15,0,0,1,3.6-2.09h16.42a4.2,4.2,0,0,0,2.26-.66l16.32-10.55a4.2,4.2,0,0,0,1.51-1.75Zm-22.88,72.17a36.81,36.81,0,1,0,36.81-36.81A36.8,36.8,0,0,0,213.27,287.67Zm37.95-19.24a18.5,18.5,0,1,1-18.49,18.5A18.5,18.5,0,0,1,251.22,268.43ZM120.39,128.53a8.9,8.9,0,1,1,8.9,8.9A8.89,8.89,0,0,1,120.39,128.53Zm37-.05a8.9,8.9,0,1,1,8.9,8.9A8.9,8.9,0,0,1,157.34,128.48Zm37.61-.1a8.9,8.9,0,1,1,8.89,8.89A8.89,8.89,0,0,1,195,128.38Z"/></svg>