<svg id="Layer_1" data-name="Layer 1" xmlns="http://www.w3.org/2000/svg" xmlns:xlink="http://www.w3.org/1999/xlink" viewBox="0 0 250 250"><defs><style>.cls-1{fill:url(#linear-gradient);}</style><linearGradient id="linear-gradient" x1="-1238" y1="-1607.32" x2="-1019.28" y2="-1607.32" gradientTransform="translate(1255 1729)" gradientUnits="userSpaceOnUse"><stop offset="0" stop-color="#2b00ff"/><stop offset="1" stop-color="#f0f"/></linearGradient></defs><title>iconsForMenu</title><path class="cls-1" d="M230.91,48.63,20.18,92.6a4,4,0,0,0-1,7.48l57.11,28.31A4,4,0,0,1,78,130l1.78,3.16a4,4,0,0,1,.45,1.23l10.66,57.69a3.35,3.35,0,0,0,5.21,2.14l39.58-27.47a3.35,3.35,0,0,1,3.74-.06l39.33,25.66a4,4,0,0,0,5.92-1.95L235.46,53.92A4,4,0,0,0,230.91,48.63ZM84.35,123.82,37.5,99.09a.64.64,0,0,1,.16-1.19L196.15,64.35a.64.64,0,0,1,.43,1.19L84.94,123.82A.62.62,0,0,1,84.35,123.82Zm12.42,40.79-6.92-34.3a.64.64,0,0,1,.35-.69L174.06,88.1a.64.64,0,0,1,.66,1.08c-17.09,12.82-68,50.93-68.73,51.18s-6,17.75-8,24.31A.63.63,0,0,1,96.77,164.61Zm31.59-3.85-22.69,16.13a.64.64,0,0,1-1-.7l7.38-25.7a.64.64,0,0,1,1-.36l15.31,9.57A.64.64,0,0,1,128.36,160.76Zm92.08-93.3L179.63,181.69a.64.64,0,0,1-.95.32l-60.2-39.65a.63.63,0,0,1,0-1l101-74.58A.63.63,0,0,1,220.44,67.46Z"/></svg>