<?xml version="1.0" encoding="utf-8"?>
<!-- Generator: Adobe Illustrator 23.0.0, SVG Export Plug-In . SVG Version: 6.00 Build 0)  -->
<svg version="1.1" id="Layer_1" xmlns="http://www.w3.org/2000/svg" xmlns:xlink="http://www.w3.org/1999/xlink" x="0px" y="0px"
	 viewBox="0 0 2000 2000" style="enable-background:new 0 0 2000 2000;" xml:space="preserve">
<style type="text/css">
	.st0{fill:url(#SVGID_1_);}
</style>
<linearGradient id="SVGID_1_" gradientUnits="userSpaceOnUse" x1="634.0074" y1="1040.1193" x2="1361.4667" y2="1040.1193" gradientTransform="matrix(1 0 0 -1 0 2000)">
	<stop  offset="0" style="stop-color:#2B00FF"/>
	<stop  offset="1" style="stop-color:#FF00FF"/>
</linearGradient>
<path class="st0" d="M1345.47,716.91l-700.9,146.25c-12.34,2.57-14.47,19.28-3.18,24.88l189.95,94.14c2.39,1.18,4.37,3.06,5.67,5.38
	l5.91,10.51c0.72,1.27,1.22,2.66,1.48,4.09l35.46,191.85c1.47,7.96,10.67,11.75,17.32,7.13l131.65-91.37
	c3.73-2.59,8.65-2.66,12.45-0.18l130.81,85.33c7.13,4.65,16.72,1.49,19.69-6.49l168.83-453.92
	C1364.26,724.74,1355.69,714.78,1345.47,716.91z M858.02,966.98l-155.84-82.25c-1.75-0.93-1.39-3.54,0.55-3.95l527.15-111.59
	c2.41-0.51,3.6,2.81,1.42,3.95L859.99,966.99C859.37,967.31,858.63,967.31,858.02,966.98z M899.32,1102.66l-23-114.07
	c-0.19-0.94,0.28-1.89,1.14-2.32l278.92-138.07c2.31-1.14,4.28,2.05,2.21,3.59C1101.73,894.42,932.5,1021.17,930,1022
	c-2.44,0.81-20.05,59.03-26.58,80.86C902.79,1104.97,899.76,1104.82,899.32,1102.66z M1004.41,1089.84l-75.48,53.65
	c-1.63,1.16-3.82-0.39-3.26-2.31l24.55-85.48c0.39-1.35,1.97-1.96,3.16-1.21l50.92,31.83
	C1005.59,1087.12,1005.64,1088.96,1004.41,1089.84z M1310.66,779.55l-135.75,379.91c-0.46,1.29-2.01,1.81-3.16,1.06l-200.21-131.85
	c-1.23-0.81-1.28-2.6-0.09-3.47l335.96-248.07C1309.09,775.89,1311.36,777.58,1310.66,779.55z"/>
</svg>
