<?xml version="1.0" encoding="utf-8"?>
<!-- Generator: Adobe Illustrator 23.0.0, SVG Export Plug-In . SVG Version: 6.00 Build 0)  -->
<svg version="1.1" id="Layer_1" xmlns="http://www.w3.org/2000/svg" xmlns:xlink="http://www.w3.org/1999/xlink" x="0px" y="0px"
	 viewBox="0 0 2000 2000" style="enable-background:new 0 0 2000 2000;" xml:space="preserve">
<style type="text/css">
	.st0{fill-rule:evenodd;clip-rule:evenodd;fill:url(#SVGID_1_);}
</style>
<linearGradient id="SVGID_1_" gradientUnits="userSpaceOnUse" x1="560.32" y1="982.304" x2="1442.1343" y2="982.304">
	<stop  offset="0" style="stop-color:#0000FF"/>
	<stop  offset="1" style="stop-color:#E600FF"/>
</linearGradient>
<path class="st0" d="M995.44,548.56c41.29-0.56,60.22,21.92,83.52,39.6c19.44,14.24,38.88,28.48,58.32,42.72
	c8.72,6.64,17.44,13.28,26.16,19.92c9.12,0.16,18.24,0.32,27.36,0.48c36.01,0,64.48-1.02,83.28,15.12
	c14.36,12.33,19.44,29.24,19.44,56.4c0.08,8.08,0.16,16.16,0.24,24.24c8.96,6.96,17.92,13.92,26.88,20.88
	c16.69,11.93,117.07,82.02,119.04,94.8c0.08,115.99,0.16,232.01,0.24,348c0,40.74,6.77,116.17-3.36,148.56
	c-6.7,21.43-22.97,38.83-42.24,47.76c-32.47,15.05-139.72,6.72-187.68,6.72c-145.75,0-291.53,0-437.28,0
	c-77.2,0-161.41,13-194.88-32.88c-6.03-8.26-10.93-19.55-13.2-31.2c-0.32-77.11-0.64-154.25-0.96-231.36
	c0.24-85.99,0.48-172.01,0.72-258c3.86-12.33,114.8-90.62,132.96-102.96c4.16-3.44,8.32-6.88,12.48-10.32
	c0.08-8.4,0.16-16.8,0.24-25.2c0-27.93,6.11-45.81,21.84-57.6c18.62-13.96,46.7-12.96,80.4-12.96c9.12-0.08,18.24-0.16,27.36-0.24
	c11.44-8.56,22.88-17.12,34.32-25.68C908.95,596.27,941.86,561.57,995.44,548.56z M1096.24,649.12c0,0.48,0,0.96,0,1.44
	c-63.43,0.24-126.89,0.48-190.32,0.72c-0.64-0.64-1.28-1.28-1.92-1.92c25.78-19.93,60.09-53.47,94.56-61.68
	C1026.38,587.76,1075.06,634.68,1096.24,649.12z M1120.48,690.4c27.07,0,114.17-6.26,127.68,5.28
	c12.07,10.31,6.24,126.9,6.24,155.04c-0.16,38.24-0.32,76.48-0.48,114.72c-84.71,62.95-169.45,125.93-254.16,188.88
	c-50.48-37.6-100.97-75.2-151.44-112.8c-34.16-25.68-68.32-51.36-102.48-77.04c0.08-85.91,0.16-171.85,0.24-257.76
	c2.13-9.53,8.19-13.35,17.04-16.32C882.23,690.4,1001.37,690.4,1120.48,690.4z M823.6,749.2c95.43,0,190.89,0,286.32,0
	c28.46,0,89.79-10.66,85.44,22.32c-3.46,26.18-63.05,16.8-92.16,16.8c-94.07-0.08-188.17-0.16-282.24-0.24
	C797.52,782.91,802.46,754.27,823.6,749.2z M1386.4,866.56c-30.72,22.72-61.44,45.44-92.16,68.16c0-45.68,0-91.36,0-137.04
	C1324.96,820.64,1355.68,843.6,1386.4,866.56z M706,797.92c0.08,45.6,0.16,91.2,0.24,136.8c-0.56,0.08-1.12,0.16-1.68,0.24
	c-30.16-22.72-60.32-45.44-90.48-68.16c0-0.56,0-1.12,0-1.68c30.16-22.4,60.32-44.8,90.48-67.2
	C705.04,797.92,705.52,797.92,706,797.92z M872.56,846.64c65.27,0,130.57,0,195.84,0c19.72,0,51.07-4.6,66.96,1.92
	c5.8,2.38,12.04,9.7,11.28,18.48c-0.74,8.58-5.6,15.45-12.48,17.76c-70.47,0.4-140.97,0.8-211.44,1.2
	c-19.12-0.48-38.24-0.96-57.36-1.44C844.97,875.71,854.57,851.42,872.56,846.64z M862.24,1101.52
	c-7.92,7.68-15.84,15.36-23.76,23.04c-27.04,25.44-54.08,50.88-81.12,76.32c-9.01,7.99-25.06,18.18-29.76,29.76
	c-2.67,6.59-0.12,15.29,2.88,19.2c3.75,4.89,14.25,10.39,23.04,6.24c47.04-43.28,94.08-86.56,141.12-129.84
	c6.16,4.24,12.32,8.48,18.48,12.72c14.25,10.58,71.89,58.85,86.4,60c14.96,1.19,87.16-62.5,104.88-72.72
	c7.92,6.96,15.84,13.92,23.76,20.88c39.52,36.32,79.04,72.64,118.56,108.96c6.27,2.97,15.46,0.32,19.44-2.64
	c6.9-5.14,9.91-17.78,4.32-26.64c-44.16-41.44-88.32-82.88-132.48-124.32c67.59-50.71,135.21-101.45,202.8-152.16
	c6.95-5.11,57.49-43.77,59.76-42.96c0.08,116.23,0.16,232.49,0.24,348.72c0,43.44,8.73,100.76-21.6,114.72
	c-12.79,5.89-35.67,3.84-54,3.84c-39.28,0-78.56,0-117.84,0c-137.75,0-275.53,0-413.28,0c-43.17,0-161.05,7.64-182.16-10.32
	c-5.34-4.54-10.44-12.84-12-20.88c-0.16-111.67-0.32-223.37-0.48-335.04c0.32-33.92,0.64-67.84,0.96-101.76
	C687.67,971.59,774.97,1036.57,862.24,1101.52z"/>
</svg>
