<svg id="Layer_1" data-name="Layer 1" xmlns="http://www.w3.org/2000/svg" xmlns:xlink="http://www.w3.org/1999/xlink" viewBox="0 0 500 500"><defs><style>.cls-1{fill-rule:evenodd;fill:url(#linear-gradient);}</style><linearGradient id="linear-gradient" x1="-371.5" y1="605" x2="-35.5" y2="605" gradientTransform="matrix(1, 0, 0, -1, 456, 854)" gradientUnits="userSpaceOnUse"><stop offset="0" stop-color="blue"/><stop offset="1" stop-color="#ae00ff"/></linearGradient></defs><title>IconResized</title><path class="cls-1" d="M413.29,81H91.8s-7.3.5-7.3,7.14V407.62S84.33,417,92.05,417H413.53s7,0,7-7v-322S420.25,81,413.29,81Zm-11,317.75H103.58V173.92H225.87s3,.83,5.89-2.57S264,139.16,264,139.16a6.25,6.25,0,0,1,5.06-2.57H402.25Zm0-280.42H259.79a21.43,21.43,0,0,0-4.47,3C253.91,122.8,221,155.67,221,155.67H103.58V100.08H402.25ZM122.87,128a8.88,8.88,0,1,1,8.88,8.88A8.88,8.88,0,0,1,122.87,128Zm36.92-.08a8.88,8.88,0,1,1,8.88,8.88A8.89,8.89,0,0,1,159.79,127.93Zm37.58-.08a8.88,8.88,0,1,1,8.88,8.87A8.89,8.89,0,0,1,197.37,127.85Zm100.22,66.78c2.66,0,5.73,1.08,8.13,1.66,15.35,3.82,26.88,13.69,32.61,27.13A65.22,65.22,0,0,1,342,236.61c.16.91.33,1.83.49,2.74-1.49,1.41-3,2.82-4.48,4.31-3.31,3.07-6.63,6.22-9.95,9.29-1.08.92-2.49,3.24-4.07,3.57-11-11-22.06-22-33.1-33-1.49-1.49-10.62-9.95-10.78-11.11,4.31-4.32,8.62-8.72,12.94-13C294,198.45,297.34,195.88,297.59,194.63Zm4.32,12.69c-.92.67-4.9,4.4-5.07,5.4,7,7,13.94,14,20.91,21,.91.91,6.06,6.47,6.72,6,1.66-1.74,3.32-3.48,5-5.14.25-1.24-2.82-8.38-3.4-9.38a35.87,35.87,0,0,0-16.84-15.43C307.13,208.82,304.64,207.41,301.91,207.32Zm-25.81,9.05c1.08.16,8.13,7.8,9.3,9l25.13,25.14c1.25,1.24,9.79,9.21,9.63,10.12Q275.85,305,231.55,349.19c-6.14,1.58-12.28,3.15-18.41,4.65-10.13,2.57-20.25,5.14-30.37,7.63-3.4.91-6.72,1.83-10.12,2.82-.33-2.49,1.91-9.62,2.74-12.19,2.32-9.21,4.64-18.42,7.05-27.63,1.66-6.47,3.23-12.94,4.89-19.41Q231.88,260.75,276.1,216.37Zm-.2,16.76Q239.18,270,202.39,306.8c0,.08.08.25.08.33,3.65,1.16,6.56,3.57,9.54,5.39.67.42,1.17,1.25,2.16,1.33q35.6-35.6,71.1-71.18v-.5C285.1,241.42,276.48,233.13,275.9,233.13Zm18.41,17.92-71.26,71.26v.17a.32.32,0,0,0,.08.25c1.33,2,2.74,4,4.07,6,.91,1.74,1.82,3.48,2.65,5.23a4,4,0,0,1,.42.08q36.71-36.58,73.34-73.26a1.87,1.87,0,0,1,.08-.66C303.36,259.26,295,251.13,294.31,251.05Zm-97.44,66.2c-.91.75-2.73,10-3.15,11.95-.33,1.57-3.32,11.11-2.82,12.11l4.73,4.56c7.8-1.91,15.68-3.73,23.48-5.64.83-.58-2.91-6.72-3.49-7.47-4.39-5.64-8.71-10.86-15.59-13.93C199,318.25,198,317.75,196.87,317.25Z"/></svg>