<svg id="Layer_1" data-name="Layer 1" xmlns="http://www.w3.org/2000/svg" xmlns:xlink="http://www.w3.org/1999/xlink" viewBox="0 0 250 250"><defs><style>.cls-1{fill-rule:evenodd;fill:url(#linear-gradient);}</style><linearGradient id="linear-gradient" x1="-935.93" y1="97.19" x2="-745" y2="97.19" gradientTransform="matrix(1, 0, 0, -1, 965, 229)" gradientUnits="userSpaceOnUse"><stop offset="0" stop-color="#5000ff"/><stop offset="1" stop-color="#ba00ff"/></linearGradient></defs><title>iconsForMenu</title><path class="cls-1" d="M212.19,104.79,198.33,94.71,151,60.23l-18.4-13.4c-1.7-1.23-3.55-3.31-5.76-3.87-4.33-1.1-7.29,2.56-9.7,4.31L99.47,59.84c-1.15.85-4.21,3.69-5.62,3.87l-.14-.1c-.88-5,1.32-13.45-.5-17.55-.84-1.91-2.71-2.74-4.6-3.6,0,0-3.41.27-4,.27-5.71,0-12.09.17-17.35-.27-.29.51-1,.35-1.55.61a6.19,6.19,0,0,0-3.43,4.37L62.12,79.1c0,1.28.41,6.87.28,7.25l-8,5.87L37.74,104.29c-2.47,1.78-5.73,3.37-7.59,5.76-2.89,3.71.36,10,5.6,8.8,2.14-.48,3.61-2.19,5.22-3.24l.15.08L41.29,138v45.34c0,6.67-1,16.58.61,22.09a24.9,24.9,0,0,0,5.1,9.13c6.93,8.32,22.77,6.42,37.84,6.42h82.68c17.14,0,30,1.53,36.8-9.13,4.49-7,3.49-18.17,3.49-29.67q0-33.21.05-66.43l.11-.06,1.28.72c1.36,1.07,2.67,2.22,4.82,2.49a5.42,5.42,0,0,0,5.93-5.64v-1.55C218,108.59,215.1,107,212.19,104.79ZM73.27,54l.5-.28,8.37.11c.81,1.37.27,5,.27,7,0,3.66,0,7.32,0,11-.3.75-8,6.22-9,6.49l-.12-.11ZM131,209.83,105,209.77q-.08-21.17-.16-42.33,0-6.49.11-13c2.18-3.77,7.13-6.7,11.58-8.2,1.76-.6,3.94-.26,5.93-.83,6.88.21,15.47,4.46,17.62,9q.06,27.57.11,55.14C139.06,210.32,132.93,209.83,131,209.83Zm63.11-3.21a10.22,10.22,0,0,1-6.1,3H151.59l-.17-21.5V161.84c0-3.33.63-7.84-.22-10.75-.52-1.8-2.2-3.4-3.32-4.71-4.49-5.27-10.51-9.82-18.56-11.47-6.41-1.31-13.48-.08-18.28,1.61-6.13,2.16-15.28,8.79-17.12,15-1,3.34-.22,8.67-.22,12.47v31.48l-.17,14.29-32.6-.05A11,11,0,0,1,55.27,207c-4.43-4.09-3-15.69-3-24q0-37.76,0-75.53l72.54-52.31c1.71.11,13.26,9.35,15.36,10.92l40,29.15c2,1.42,16.22,11.25,16.47,12.3v73.42C196.68,189.52,198.15,201.83,194.07,206.62Z"/></svg>