<?xml version="1.0" encoding="utf-8"?>
<!-- Generator: Adobe Illustrator 23.0.0, SVG Export Plug-In . SVG Version: 6.00 Build 0)  -->
<svg version="1.1" id="Layer_1" xmlns="http://www.w3.org/2000/svg" xmlns:xlink="http://www.w3.org/1999/xlink" x="0px" y="0px"
	 viewBox="0 0 2000 2000" style="enable-background:new 0 0 2000 2000;" xml:space="preserve">
<style type="text/css">
	.st0{fill-rule:evenodd;clip-rule:evenodd;fill:url(#SVGID_1_);}
</style>
<linearGradient id="SVGID_1_" gradientUnits="userSpaceOnUse" x1="586.8452" y1="1000.4062" x2="1413.78" y2="1000.4062">
	<stop  offset="0" style="stop-color:#5000FF"/>
	<stop  offset="1" style="stop-color:#BA00FF"/>
</linearGradient>
<path class="st0" d="M1379.94,883.24c-20-14.56-40-29.12-60-43.68c-68.31-49.84-136.65-99.68-204.96-149.52
	c-26.56-19.36-53.12-38.72-79.68-58.08c-7.37-5.32-15.37-14.36-24.96-16.8c-18.73-4.76-31.57,11.13-42,18.72
	c-25.52,18.16-51.04,36.32-76.56,54.48c-5.02,3.7-18.44,16.17-24.48,16.8c-0.16-0.16-0.32-0.32-0.48-0.48
	c-3.82-21.75,5.7-58.29-2.16-76.08c-3.64-8.24-11.73-11.88-19.92-15.6c0,0-14.79,1.2-17.52,1.2c-24.73,0-52.35,0.72-75.12-1.2
	c-1.26,2.21-4.36,1.55-6.72,2.64c-7.22,3.35-13.02,10.2-14.88,18.96c-0.16,45.76-0.32,91.52-0.48,137.28
	c0,5.55,1.75,29.76,1.2,31.44c-11.6,8.48-23.2,16.96-34.8,25.44c-24,17.44-48,34.88-72,52.32c-10.69,7.7-24.84,14.63-32.88,24.96
	c-12.53,16.09,1.55,43.28,24.24,38.16c9.04-2.04,15.31-9.09,22.08-13.68c0.4,0,0.8,0,1.2,0c0.24,32.24,0.48,64.48,0.72,96.72
	c0,65.51,0,131.05,0,196.56c0,28.93-4.39,71.91,2.64,95.76c4.73,16.04,12.68,28.32,22.08,39.6c30.05,36.09,98.64,27.84,163.92,27.84
	c119.35,0,238.73,0,358.08,0c74.23,0,129.93,6.61,159.36-39.6c19.44-30.53,15.12-78.75,15.12-128.64
	c0.08-95.99,0.16-192.01,0.24-288c0.16-0.08,0.32-0.16,0.48-0.24c1.84,1.04,3.68,2.08,5.52,3.12c5.9,4.64,11.57,9.63,20.88,10.8
	c14.86,1.87,25.68-10.71,25.68-24.48c0-2.24,0-4.48,0-6.72C1405.23,899.71,1392.56,892.61,1379.94,883.24z M778.74,663.64
	c0.72-0.4,1.44-0.8,2.16-1.2c12.08,0.16,24.16,0.32,36.24,0.48c3.52,5.94,1.2,21.87,1.2,30.24c-0.08,15.84-0.16,31.68-0.24,47.52
	c-1.29,3.22-34.57,26.93-39.12,28.08c-0.16-0.16-0.32-0.32-0.48-0.48C778.58,733.4,778.66,698.52,778.74,663.64z M1028.58,1338.76
	c-37.44-0.08-74.88-0.16-112.32-0.24c-0.24-61.11-0.48-122.25-0.72-183.36c0.16-18.72,0.32-37.44,0.48-56.16
	c9.46-16.3,30.9-29.02,50.16-35.52c7.64-2.58,17.09-1.12,25.68-3.6c29.79,0.91,67.01,19.33,76.32,38.88
	c0.16,79.59,0.32,159.21,0.48,238.8C1063.67,1340.91,1037.13,1338.76,1028.58,1338.76z M1301.46,1325.08
	c-5.97,7.02-15.42,11.23-26.4,13.2c-52.39,0-104.81,0-157.2,0c-0.24-31.04-0.48-62.08-0.72-93.12c0-38,0-76,0-114
	c0-14.43,2.72-33.96-0.96-46.56c-2.28-7.81-9.56-14.73-14.4-20.4c-19.47-22.84-45.53-42.56-80.4-49.68
	c-27.77-5.67-58.4-0.37-79.2,6.96c-26.57,9.36-66.22,38.09-74.16,64.8c-4.3,14.47-0.96,37.53-0.96,54c0,45.44,0,90.88,0,136.32
	c-0.24,20.64-0.48,41.28-0.72,61.92c-47.04-0.08-94.08-0.16-141.12-0.24c-10.15-1.8-18.26-6.01-24.48-11.76
	c-19.16-17.71-12.96-67.98-12.96-104.16c0.08-109.03,0.16-218.09,0.24-327.12c104.63-75.51,209.29-151.05,313.92-226.56
	c7.42,0.46,57.41,40.48,66.48,47.28c57.67,42.08,115.37,84.16,173.04,126.24c8.58,6.15,70.18,48.76,71.28,53.28
	c0,105.99,0,212.01,0,318C1312.74,1251.02,1319.12,1304.33,1301.46,1325.08z"/>
</svg>
