<?xml version="1.0" encoding="utf-8"?>
<!-- Generator: Adobe Illustrator 23.0.0, SVG Export Plug-In . SVG Version: 6.00 Build 0)  -->
<svg version="1.1" id="Layer_1" xmlns="http://www.w3.org/2000/svg" xmlns:xlink="http://www.w3.org/1999/xlink" x="0px" y="0px"
	 viewBox="0 0 2000 2000" style="enable-background:new 0 0 2000 2000;" xml:space="preserve">
<style type="text/css">
	.st0{fill-rule:evenodd;clip-rule:evenodd;fill:url(#SVGID_1_);}
</style>
<linearGradient id="SVGID_1_" gradientUnits="userSpaceOnUse" x1="684.16" y1="981.8168" x2="1316.2461" y2="981.8168">
	<stop  offset="1.222659e-07" style="stop-color:#0000FF"/>
	<stop  offset="1" style="stop-color:#DF00FF"/>
</linearGradient>
<path class="st0" d="M1306.48,779.2c-2.12-7.76-2.68-15.44-5.52-22.56c-11.32-28.35-21.93-55.81-38.4-78.96
	c-6.32-8.48-12.64-16.96-18.96-25.44c-6-6.56-12-13.12-18-19.68c-3.04-2.72-6.08-5.44-9.12-8.16c-7.9-7.85-16.17-14.84-25.44-21.36
	c-4.64-3.68-9.28-7.36-13.92-11.04c-24.14-16.51-55.11-31.34-85.92-40.56c-16.24-4.86-31.82-6.64-50.16-9.84
	c-11.3-1.97-25.54-2.64-38.64-2.64c-5.35,0-10.13-0.41-14.16,0.24c-6.88,0.16-13.76,0.32-20.64,0.48
	c-20.14,4.18-40.2,6.56-58.8,11.76c-15.58,4.36-31.14,11.88-44.88,18.24c-66.77,30.93-122.47,85.99-151.44,154.56
	c-4.5,10.65-10.21,22.85-13.92,34.32c-4.97,15.36-6.82,29.71-10.08,47.04c-1.51,8.05-3.32,16.88-3.12,26.64c-0.4,0-0.8,0-1.2,0
	c0,14.88,0,29.76,0,44.64c0.4,0,0.8,0,1.2,0c4.44,55.83,24.08,100.79,42,144c3.76,7.52,7.52,15.04,11.28,22.56
	c6.96,16.43,15.8,31.15,23.52,46.32c4.89,9.61,9.3,19.2,14.88,28.32c4.56,7.36,9.12,14.72,13.68,22.08
	c8.67,16.09,18.91,30.67,28.32,45.84c25.09,40.47,52.63,78.61,80.64,116.16c13.77,18.46,27.73,36.4,41.52,54.72
	c9.92,11.84,19.84,23.68,29.76,35.52c6,7.57,12.99,14.16,18.96,21.6c2.51,3.13,5.74,8.74,9.36,10.56c0.64,0.08,1.28,0.16,1.92,0.24
	c6.56-6.56,13.12-13.12,19.68-19.68c7.58-9.92,16.52-19,23.76-29.04c21.98-30.48,46.3-59.42,68.64-89.76
	c29.23-39.7,57.02-81.28,83.28-123.6c8.64-14.48,17.28-28.96,25.92-43.44c8.72-16,17.44-32,26.16-48c3.16-5.63,5.4-11.27,7.92-17.28
	c3.8-9.05,9.29-18.4,13.68-27.12c5.13-10.18,8.07-20.62,12.72-31.2c13.51-30.69,21.94-64.39,30-101.04
	c0.24-3.52,0.48-7.04,0.72-10.56C1319.8,850.37,1314,806.79,1306.48,779.2z M1262.8,900.4c-16.43,68.28-43.83,125.32-74.88,179.04
	c-17.42,30.14-34.21,59.64-53.28,88.08c-11.33,16.89-23.68,33.52-34.8,50.4c-22.03,33.45-47.15,64.41-71.04,96
	c-6.25,8.27-12.91,16.11-19.2,24.24c-2.47,3.19-5.22,8.96-8.88,10.8c-0.48,0-0.96,0-1.44,0c-3.16-1.54-5.33-6.38-7.44-9.12
	c-6.02-7.83-12.45-15.32-18.48-23.28c-21.38-28.23-43.81-55.84-63.84-85.44c-7.76-10.88-15.52-21.76-23.28-32.64
	c-14.88-22.72-29.76-45.44-44.64-68.16c-14.77-22.53-27.22-46.87-40.8-70.32c-1.84-4-3.68-8-5.52-12
	c-9.97-19.82-20.74-40.59-30-61.44c-5.34-12.02-9.03-24.54-13.92-36.48c-3.73-9.11-5.19-18.24-8.16-28.08
	c-6.4-21.21-13.91-54.22-9.6-81.84c0.16-5.28,0.32-10.56,0.48-15.84c4.91-27.41,9.87-51.74,19.2-74.4
	c28.79-69.93,91.12-127.06,166.08-150.96c17.16-5.47,35.46-7.41,54.72-11.04c7.24-1.36,17.79,1.26,24-1.2
	c24.25,0.03,49.13,2.51,67.92,8.88c4.96,1.12,9.92,2.24,14.88,3.36c8.1,2.89,16.99,5.9,25.2,9.36c2.56,1.44,5.12,2.88,7.68,4.32
	c16.58,6.82,30.31,16.3,43.92,25.92c25.25,17.85,48.25,40.53,65.04,66.72c2.64,4.64,5.28,9.28,7.92,13.92
	c5.79,8.97,12.14,20.12,16.08,30.48c1.04,3.28,2.08,6.56,3.12,9.84C1264.64,795.5,1274.03,853.71,1262.8,900.4z M1033.12,736.96
	c-10.32-3.56-23.38-3.39-36-4.32c-4.26,1.7-9.18,0.4-13.92,1.2c-8.01,1.35-16.35,2.34-23.28,5.28c-37.48,15.93-61.91,38.85-76.08,78
	c-6.95,19.2-6.53,50-0.72,69.6c10.88,36.7,32.26,63.63,65.52,77.76c4.83,2.05,10.52,5.28,15.84,6.72
	c6.32,1.71,11.83,1.84,18.72,3.36c4.29,0.95,12.73,2.53,18,1.68c3.52-0.16,7.04-0.32,10.56-0.48c7.9-1.35,16.22-2.53,23.76-4.56
	c33.8-9.08,57.01-33.42,72.96-60.72c5.62-9.61,8.26-21.58,11.28-33.6c5.52-21.99-0.49-48.28-5.76-64.56
	C1101.38,773.34,1071.66,750.27,1033.12,736.96z M1068.4,880.96c-8,23.63-27.8,37.72-52.56,44.88c-4.8,0.48-9.6,0.96-14.4,1.44
	c-3.04-0.32-6.08-0.64-9.12-0.96c-2.32-0.08-4.64-0.16-6.96-0.24c-5.91-1.21-12.9-3.97-17.76-6.48
	c-7.32-3.78-12.94-7.61-18.96-12.48c-16.75-13.56-27.4-51.13-17.04-78.48c7.55-19.92,21.18-32.68,39.6-41.76
	c5.12-1.44,10.24-2.88,15.36-4.32c3.92-0.4,7.84-0.8,11.76-1.2C1049.77,781.33,1086.37,827.87,1068.4,880.96z"/>
</svg>
