<?xml version="1.0" encoding="utf-8"?>
<!-- Generator: Adobe Illustrator 23.0.0, SVG Export Plug-In . SVG Version: 6.00 Build 0)  -->
<svg version="1.1" id="Layer_1" xmlns="http://www.w3.org/2000/svg" xmlns:xlink="http://www.w3.org/1999/xlink" x="0px" y="0px"
	 viewBox="0 0 2000 2000" style="enable-background:new 0 0 2000 2000;" xml:space="preserve">
<style type="text/css">
	.st0{fill:url(#SVGID_1_);}
</style>
<linearGradient id="SVGID_1_" gradientUnits="userSpaceOnUse" x1="549.617" y1="999.234" x2="1448.8511" y2="999.234">
	<stop  offset="0" style="stop-color:#0000FF"/>
	<stop  offset="1" style="stop-color:#E600FF"/>
</linearGradient>
<path class="st0" d="M1422.15,708.94h-229.9c-3.81,0-6.89-3.09-6.89-6.89v-39.45c0-0.97-0.05-1.93-0.16-2.89
	c-1.04-9.54-8.54-54.94-56.52-54.94c-53.62,0-255.83,0-255.83,0s-56.68,1.53-56.68,56.68v37.41c0,5.43-4.4,9.83-9.83,9.84
	l-230.05,0.22c-14.73,0.01-26.67,11.96-26.67,26.7v592.99c0,35.96,29.15,65.11,65.11,65.11h772.09c34.27,0,62.04-27.78,62.04-62.04
	V735.63C1448.85,720.89,1436.9,708.94,1422.15,708.94z M865.19,666.81c0-13.96,11.32-25.28,25.28-25.28h217.91
	c14.59,0,26.43,11.83,26.43,26.43v40.98H865.19V666.81z M612.43,764.09h781.28l-84.19,243.85c-2.79,8.08-10.4,13.51-18.95,13.51
	h-161.88v-27.57c0-10.15-8.23-18.38-18.38-18.38H887.4c-8.88,0-16.09,7.2-16.09,16.09v29.87H732.78c-21.53,0-40.63-13.84-47.33-34.3
	L612.43,764.09z M1081.19,1027.57v49.02H920.34v-49.02H1081.19z M1401.36,1317.51c0,14.16-11.48,25.64-25.64,25.64H619.57
	l-13.45-4.26c-1.06,0-6.25-3.87-6.79-17.87c-3.33-87.19,2.36-402.2,2.36-402.21c0,0,25.46,61.57,44.72,108.16
	c12.8,30.97,43.01,51.16,76.51,51.16h143.42c1.89,0,3.43,1.53,3.43,3.43v29.13c0,9.94,8.06,18,18,18h222.02c9.94,0,18-8.06,18-18
	v-30.66c0-1.89,1.53-3.43,3.43-3.43h162.61c28.34,0,53.5-18.13,62.46-45.02l45.06-135.18V1317.51z"/>
</svg>
