<?xml version="1.0" encoding="utf-8"?>
<!-- Generator: Adobe Illustrator 23.0.0, SVG Export Plug-In . SVG Version: 6.00 Build 0)  -->
<svg version="1.1" id="Layer_1" xmlns="http://www.w3.org/2000/svg" xmlns:xlink="http://www.w3.org/1999/xlink" x="0px" y="0px"
	 viewBox="0 0 2000 2000" style="enable-background:new 0 0 2000 2000;" xml:space="preserve">
<style type="text/css">
	.st0{fill-rule:evenodd;clip-rule:evenodd;fill:url(#SVGID_1_);}
</style>
<linearGradient id="SVGID_1_" gradientUnits="userSpaceOnUse" x1="616.7685" y1="1012.1512" x2="1421.1667" y2="1012.1512">
	<stop  offset="0" style="stop-color:#0000FF"/>
	<stop  offset="1" style="stop-color:#DF00FF"/>
</linearGradient>
<path class="st0" d="M844.72,886.96c4.8,0.8,9.6,1.6,14.4,2.4c3.36,7.6,6.72,15.2,10.08,22.8c0.71,4.95-30.9,39.91-33.84,49.92
	c-3.97,13.54,33.36,47.18,41.76,54.24c22.29,18.73,56.01-32.72,68.88-27.84c6.96,3.12,13.92,6.24,20.88,9.36
	c0.8,5.04,1.6,10.08,2.4,15.12c2.68,18.01,3.21,47.28,20.16,51.6c20,0.08,40,0.16,60,0.24c5.19-1.4,10.37-5.82,12.24-10.56
	c3.36-18.8,6.72-37.6,10.08-56.4c7.28-3.12,14.56-6.24,21.84-9.36c4.95-1.05,40.09,29.13,47.76,32.64c4,1.83,10.65,1.86,14.64,0
	c7.92-3.69,45.97-41.27,47.28-49.92c1.98-13.07-21.94-39.93-28.32-48.72c-1.84-2.64-3.68-5.28-5.52-7.92
	c1.84-4.08,3.68-8.16,5.52-12.24c1.28-3.44,2.56-6.88,3.84-10.32c18.8-3.44,37.6-6.88,56.4-10.32
	c15.28-5.55,11.52-30.12,11.52-50.64c0-8.67,1.12-20.04-1.68-26.16c-6.31-13.8-39.85-13.19-56.16-16.8c-2.8-0.4-5.6-0.8-8.4-1.2
	c-3.36-7.6-6.72-15.2-10.08-22.8c0.7-4.22,4.12-6.88,6.24-9.84c8.8-12.64,17.6-25.28,26.4-37.92c1.82-4.45,1.7-10.89-0.48-14.88
	c-4.47-8.18-40.42-45.14-49.44-46.56c-13.08-2.06-38.3,20.7-47.04,26.88c-2.96,2.16-5.92,4.32-8.88,6.48
	c-7.52-2.96-15.04-5.92-22.56-8.88c-4.47-2.52-7.15-50.1-11.28-58.32c-7.99-15.89-50.23-9.86-73.44-9.84
	c-2.5,5.08-9.29,5.98-11.52,12.72c-3.04,17.28-6.08,34.56-9.12,51.84c-0.32,0.64-0.64,1.28-0.96,1.92c-3.28,1.2-6.56,2.4-9.84,3.6
	c-4.72,1.92-9.44,3.84-14.16,5.76c-3.28-2.4-6.56-4.8-9.84-7.2c-8-5.85-32.95-28.04-44.4-26.64c-8.97,1.1-43.63,35.84-49.44,43.44
	c-15.25,19.96,25.9,48.26,29.28,63.84c-3.04,7.76-6.08,15.52-9.12,23.28c-2.88,3.97-45.1,7.19-53.52,9.36
	c-5.4,1.39-10.47,5.29-12.48,10.08c-2.7,6.42-3.51,52.59-1.68,62.64C796.32,883.37,827.44,883.91,844.72,886.96z M828.4,825.76
	c16.81-7.36,48.82-1.1,58.56-15.36c3.6-9.84,7.2-19.68,10.8-29.52c2.91-6.89,11-13.63,9.6-23.76c-1.5-10.85-31.3-44.98-29.04-48.72
	c20.21-33.37,37.49,12.87,61.92,16.32c11.76,1.66,21.07-8.73,29.76-12c7.6-2.4,15.2-4.8,22.8-7.2c11.15-5.84,12.5-31.91,14.88-46.08
	c0.74-4.44,0.66-10.38,3.12-13.2c7.2,0.16,14.4,0.32,21.6,0.48c7.1,15.49,1.51,41.3,11.04,54.48c6.21,8.59,24.2,10.35,34.08,15.12
	c7.51,3.63,17.51,13.33,28.8,8.16c14.08-9.68,28.16-19.36,42.24-29.04c5.04,5.44,10.08,10.88,15.12,16.32
	c-6.38,11.35-34.08,37.57-30.24,53.52c4,8.24,8,16.48,12,24.72c3.12,9.29,4.56,21.83,12,26.88c7.75,5.27,51.1,6.7,54.24,11.28
	c0,7.2,0,14.4,0,21.6c-13.44,8.07-41.48,2.84-54.72,11.28c-7.53,4.8-8.28,16.34-11.76,25.2c-4.4,9.2-8.8,18.4-13.2,27.6
	c-3.57,16.92,26.55,38.45,30.72,52.8c-5.2,5.04-10.4,10.08-15.6,15.12c-14.56-9.92-29.12-19.84-43.68-29.76
	c-11.21-4.69-21.06,5.45-28.08,8.4c-10.08,3.68-20.16,7.36-30.24,11.04c-12.79,9.47-9.08,41.98-14.88,58.32
	c-7.28,0.08-14.56,0.16-21.84,0.24c-7.72-15.35-2.1-40.77-11.28-54.72c-4.67-7.1-16.22-8.56-24.96-11.52
	c-9.76-4.48-19.52-8.96-29.28-13.44c-15.39-2.48-38.3,25.59-51.6,30.24c-5.2-5.12-10.4-10.24-15.6-15.36
	c10.16-14.96,20.32-29.92,30.48-44.88c3.23-10.31-5.26-18.21-8.16-24.72c-3.68-10.32-7.36-20.64-11.04-30.96
	c-8.77-14.06-41.49-10.81-58.56-16.56C828.4,840.64,828.4,833.2,828.4,825.76z M1023.04,926.32
	c116.05-12.25,107.89-176.04-8.16-174.72c-6.64,1.04-13.28,2.08-19.92,3.12c-28.34,8.48-48.82,28.56-58.56,55.68
	C915.42,868.85,964.81,932.47,1023.04,926.32z M969.76,820.24c8.88-20.59,22.29-28.14,46.32-34.08c70.93-0.82,73.91,97.63,6,105.6
	C987.02,895.87,954.8,854.94,969.76,820.24z M1376.08,1101.76c-17.71-2.94-31.94,3.57-44.88,6.48c-3.92-3.76-7.84-7.52-11.76-11.28
	c-12.3-9.16-33.82-17.51-56.88-14.16c-6.08,1.68-12.16,3.36-18.24,5.04c-1.73,0.23-19.96-13.49-24-15.36
	c-16.02-7.39-41.33-9.08-60.96-3.6c-21.59,6.03-36.34,17.68-53.52,27.6c-16.32,10-32.64,20-48.96,30
	c-9.92,6.32-19.84,12.64-29.76,18.96c-5.28-1.12-10.56-2.24-15.84-3.36c-12.24-3.27-26.76-5.64-36.24-12.24
	c-7.92-8.24-15.84-16.48-23.76-24.72c-29.4-25.12-65.36-40.73-120.96-40.08c-15.7,3.7-31.09,1.94-44.88,5.52
	c-44.94,11.68-85.39,33.95-125.52,51.84c-11.94,5.32-62.33,22.4-35.28,43.68c13.36,10.51,47.77-10.8,59.52-16.8
	c19.52-8.4,39.04-16.8,58.56-25.2c28.27-12.52,59.13-28.88,103.44-24c34.01,3.74,55.21,9.1,74.88,25.92
	c11.26,9.63,19.3,22.62,31.68,31.2c14.86,10.3,36.88,16.35,56.64,21.12c17.85,4.3,36.48,5.43,56.4,7.92
	c29.55,3.69,68.56-4.72,75.84,20.88c9.35,32.88-34,32.4-61.44,32.4c-33.79,0-71.46,2.35-102.24-1.92
	c-26.79-3.72-52.13-11.18-76.8-15.36c-22.28-3.78-26.75,25.97-11.28,33.12c9.84,2.4,19.68,4.8,29.52,7.2
	c41.31,9.66,87.65,12,140.88,12c26.92,0,54.59,0.67,74.88-5.28c17.88-5.25,31.95-18.18,46.32-27.6
	c34.64-22.72,69.28-45.44,103.92-68.16c8.3-5.42,93.12-64.34,101.28-24.48c2.45,11.99-15.91,26.19-22.08,31.2
	c-29.75,24.16-65.05,43.54-97.44,64.56c-54.22,35.18-108.15,70.58-163.44,104.88c-18.74,11.62-46.74,34.98-79.92,29.28
	c-32.11-5.51-56.27-21.41-81.6-34.32c-27.04-13.6-54.08-27.2-81.12-40.8c-15.03-8.32-31.45-18.54-50.16-22.32
	c-39.17-7.91-65.61,20.25-88.8,34.8c-9.53,5.98-27.67,16.23-16.08,32.4c8.27,11.54,22.95,4.56,31.68-0.96
	c18.3-11.58,46.29-39.36,74.16-29.52c51.67,26.08,103.37,52.16,155.04,78.24c11.36,5.67,24.21,10.59,37.44,13.92
	c5.66,1.42,12.68,1.51,17.28,3.84c4.08,0,8.16,0,12.24,0c41.35,0,66.18-21.38,92.64-37.2c70.56-42.19,138.93-88.26,206.88-133.68
	c28.56-19.09,67.52-36.82,82.56-69.12C1432.37,1138.92,1407.68,1107,1376.08,1101.76z M1131.52,1156
	c-7.12-1.12-14.24-2.24-21.36-3.36c-8.48-0.24-16.96-0.48-25.44-0.72c-0.08-0.32-0.16-0.64-0.24-0.96
	c11.52-7.2,23.04-14.4,34.56-21.6c12.91-8.36,25.62-17.97,40.8-23.76c7.6-1.76,15.2-3.52,22.8-5.28c11.43-0.08,20.41,1.47,27.6,5.52
	c0,0.32,0,0.64,0,0.96C1184,1123.2,1157.76,1139.6,1131.52,1156z M1264.24,1145.68c-29.04,19.12-58.08,38.24-87.12,57.36
	c-0.48-0.08-0.96-0.16-1.44-0.24c-2.6-10.45-8.41-17.04-11.04-25.44c3.61-6.14,16.3-11.04,22.56-14.64
	c26.86-15.46,49.24-37.26,82.8-45.36c10.33-0.01,20.51,1.63,26.16,6.48C1293.59,1129.64,1270.61,1141.55,1264.24,1145.68z"/>
</svg>
