<svg id="Layer_1" data-name="Layer 1" xmlns="http://www.w3.org/2000/svg" xmlns:xlink="http://www.w3.org/1999/xlink" viewBox="0 0 250 250"><defs><style>.cls-1{fill-rule:evenodd;fill:url(#linear-gradient);}</style><linearGradient id="linear-gradient" x1="-1221.13" y1="100.17" x2="-1030" y2="100.17" gradientTransform="matrix(1, 0, 0, -1, 1255, 229)" gradientUnits="userSpaceOnUse"><stop offset="0" stop-color="blue"/><stop offset="1" stop-color="#df00ff"/></linearGradient></defs><title>iconsForMenu</title><path class="cls-1" d="M88,99.06l3.42.57,2.4,5.42c.17,1.18-7.34,9.48-8,11.86-1,3.22,7.92,11.21,9.92,12.89,5.3,4.45,13.31-7.77,16.37-6.61l5,2.22.57,3.59c.63,4.28.76,11.24,4.79,12.26l14.25.06a4.57,4.57,0,0,0,2.91-2.51l2.4-13.4,5.19-2.22c1.17-.25,9.52,6.92,11.35,7.75a4.73,4.73,0,0,0,3.47,0c1.89-.87,10.93-9.8,11.24-11.86.47-3.11-5.22-9.49-6.73-11.58-.44-.62-.88-1.25-1.31-1.88.43-1,.87-1.94,1.31-2.91.3-.81.61-1.63.91-2.45l13.4-2.45c3.63-1.32,2.74-7.16,2.74-12,0-2.06.27-4.76-.4-6.22-1.5-3.28-9.47-3.13-13.34-4l-2-.29-2.39-5.41c.16-1,1-1.64,1.48-2.34l6.27-9a4.61,4.61,0,0,0-.11-3.54C172,53,163.45,44.26,161.31,43.92c-3.11-.49-9.1,4.92-11.18,6.39L148,51.85l-5.36-2.11c-1.06-.6-1.7-11.91-2.68-13.86-1.9-3.78-11.93-2.34-17.45-2.34-.59,1.21-2.21,1.42-2.74,3l-2.16,12.32-.23.46-2.34.85-3.36,1.37-2.34-1.71c-1.9-1.39-7.83-6.66-10.55-6.33-2.13.26-10.37,8.52-11.75,10.32C83.44,58.59,93.22,65.31,94,69c-.72,1.85-1.45,3.69-2.17,5.53-.68.95-10.71,1.71-12.72,2.23a4.47,4.47,0,0,0-3,2.39c-.64,1.53-.83,12.5-.4,14.89C76.53,98.21,83.92,98.34,88,99.06ZM84.09,84.57c4-1.82,11.67-.28,14-3.69.85-2.34,1.71-4.67,2.56-7,.69-1.64,2.62-3.24,2.28-5.64-.35-2.58-7.43-10.68-6.89-11.57,4.8-7.92,8.9,3.06,14.7,3.87,2.79.4,5-2.07,7.07-2.84L123.22,56c2.65-1.39,3-7.58,3.53-10.95.18-1.05.16-2.46.74-3.13l5.13.11c1.69,3.68.36,9.81,2.62,12.94,1.48,2,5.75,2.46,8.09,3.59,1.79.86,4.16,3.16,6.84,1.94l10-6.9,3.59,3.88c-1.51,2.69-8.09,8.92-7.18,12.7L159.46,76c.74,2.21,1.08,5.19,2.85,6.39s12.13,1.59,12.88,2.67v5.13c-3.19,1.92-9.85.68-13,2.68-1.79,1.14-2,3.88-2.8,6-1,2.19-2.08,4.37-3.13,6.56-.85,4,6.3,9.13,7.29,12.53l-3.7,3.59-10.37-7.06c-2.66-1.12-5,1.29-6.67,2l-7.18,2.62c-3,2.25-2.15,10-3.53,13.85l-5.19.06c-1.83-3.65-.5-9.68-2.67-13-1.11-1.69-3.86-2-5.93-2.74l-6.95-3.19c-3.66-.59-9.1,6.08-12.26,7.18l-3.7-3.65L102.65,107c.76-2.45-1.25-4.33-1.94-5.87l-2.62-7.35c-2-3.27-9.54-2.6-13.65-3.85Zm46.31,23.85C158,105.51,156,66.59,128.46,66.9l-4.73.74a20.86,20.86,0,0,0-13.92,13.23C104.83,94.76,116.57,109.88,130.4,108.42ZM117.74,83.21c2.11-4.89,5.3-6.69,11-8.1,16.85-.19,17.56,23.2,1.42,25.09C121.84,101.18,114.19,91.46,117.74,83.21Zm96.55,66.93c-4.21-.7-7.59.85-10.67,1.54L200.83,149a18.94,18.94,0,0,0-13.52-3.36L183,146.83c-.41.06-4.74-3.2-5.7-3.65-3.81-1.75-9.82-2.15-14.49-.85-5.09,1.42-8.58,4.16-12.63,6.51l-11.43,7-7.36,4.69-3.76-.8c-2.91-.78-6.36-1.34-8.61-2.91q-2.84-2.92-5.65-5.87c-7-6-15.53-9.68-28.74-9.52-3.73.88-7.39.46-10.66,1.31-10.68,2.77-20.29,8.06-29.83,12.32-2.84,1.26-14.81,5.32-8.38,10.37,3.17,2.5,11.35-2.56,14.14-4l13.91-6c6.72-3,14.05-6.86,24.58-5.7,8.08.89,13.12,2.16,17.8,6.16,2.67,2.29,4.58,5.38,7.52,7.41,3.53,2.45,8.77,3.89,13.46,5,4.24,1,8.67,1.29,13.4,1.88,7,.88,16.29-1.12,18,5,2.22,7.81-8.08,7.69-14.6,7.69-8,0-17,.56-24.29-.45-6.37-.89-12.39-2.66-18.25-3.65-5.29-.9-6.35,6.17-2.68,7.87l7,1.71c9.81,2.29,20.82,2.85,33.47,2.85,6.4,0,13,.16,17.79-1.25,4.25-1.25,7.59-4.32,11-6.56l24.69-16.2c2-1.29,22.13-15.29,24.07-5.81.58,2.84-3.78,6.22-5.25,7.41-7.07,5.74-15.46,10.34-23.15,15.34-12.89,8.36-25.7,16.77-38.84,24.92-4.45,2.76-11.1,8.31-19,7-7.63-1.31-13.37-5.09-19.39-8.16l-19.27-9.69c-3.57-2-7.47-4.41-11.92-5.31-9.31-1.88-15.59,4.82-21.1,8.27-2.26,1.42-6.57,3.86-3.82,7.7,2,2.74,5.45,1.08,7.53-.23,4.35-2.75,11-9.35,17.62-7l36.84,18.59a44.33,44.33,0,0,0,8.89,3.31c1.35.33,3,.36,4.11.91H133c9.82,0,15.72-5.08,22-8.84,16.77-10,33-21,49.16-31.76,6.78-4.54,16-8.75,19.61-16.43C227.66,159,221.8,151.39,214.29,150.14Zm-58,12.85-5.08-.8-6-.17-.06-.22q4.1-2.58,8.21-5.14c3.07-2,6.09-4.27,9.7-5.64l5.41-1.26a13,13,0,0,1,6.56,1.31v.23Zm31.46-2.45L167,174.17l-.34-.06c-.62-2.48-2-4.05-2.62-6,.85-1.46,3.87-2.63,5.36-3.48,6.38-3.68,11.7-8.86,19.67-10.78,2.46,0,4.87.39,6.22,1.54C194.69,156.73,189.23,159.56,187.71,160.54Z"/></svg>