<?xml version="1.0" encoding="utf-8"?>
<!-- Generator: Adobe Illustrator 23.0.0, SVG Export Plug-In . SVG Version: 6.00 Build 0)  -->
<svg version="1.1" id="Layer_1" xmlns="http://www.w3.org/2000/svg" xmlns:xlink="http://www.w3.org/1999/xlink" x="0px" y="0px"
	 viewBox="0 0 2000 2000" style="enable-background:new 0 0 2000 2000;" xml:space="preserve">
<style type="text/css">
	.st0{fill-rule:evenodd;clip-rule:evenodd;fill:url(#SVGID_1_);}
</style>
<linearGradient id="SVGID_1_" gradientUnits="userSpaceOnUse" x1="591.7985" y1="958.1136" x2="1408.5361" y2="958.1136">
	<stop  offset="0" style="stop-color:#0000FF"/>
	<stop  offset="1" style="stop-color:#E600FF"/>
</linearGradient>
<path class="st0" d="M782.08,550.24c9.23-0.03,14.06,0,18.48,4.56c6.6,6.81,7.71,60.09,1.44,68.88c-6.36,8.91-25.2,5.74-32.64,16.08
	c-3.59,5-9.69,15.87-8.16,24.24c17.47,6.18,34.31-6.39,46.56,8.16c2.8,3.33,5.2,7.19,6.24,12.24c0.24,18.88,0.48,37.76,0.72,56.64
	c0,10.85,1.6,25.01-1.44,33.6c-2.09,5.9-6.86,11-12,13.92c-6.69,3.8-94.35,5.45-105.36,1.92c-5.79-1.86-11.25-6.23-14.16-11.04
	c-7.4-12.21-3.6-41.74-3.6-60c0-63.03,3.77-111.25,36.24-140.88c12.71-11.6,28.13-18.89,47.04-24.48c6.72-1.2,13.44-2.4,20.16-3.6
	C781.76,550.4,781.92,550.32,782.08,550.24z M944.8,550.24c9.26-0.07,15.2,0.24,19.2,5.28c6.11,7.69,6.7,61.05,0.24,68.88
	c-7.12,8.64-24.78,4.92-32.4,15.84c-3.26,4.68-9.7,15.96-7.92,23.76c0.16,0.16,0.32,0.32,0.48,0.48c14.27-0.12,33-1.88,41.76,3.84
	c5.25,3.43,8.98,9.46,10.8,16.32c3.32,12.49,1.11,87.69-2.88,94.32c-10.87,18.08-49.41,12.48-77.76,12.48
	c-14.99,0-35.04,2.15-44.16-4.08c-16.41-11.21-11.28-48.26-11.28-75.36c0-72.16,9.43-121.55,55.2-147.12
	c8.7-4.86,19.27-8.8,30-11.28C931.22,552.41,942.02,552.48,944.8,550.24z M772.96,584.32c0.16,5.36,0.32,10.72,0.48,16.08
	c-5.04,2.4-10.08,4.8-15.12,7.2c-19.18,10.98-26.5,32.96-29.76,60.24c-1.11,9.28-1.5,19.13,4.08,24c9.37,8.18,33.8,2.87,49.44,4.56
	c0.16,20.8,0.32,41.6,0.48,62.4c-24,0.24-48,0.48-72,0.72c-0.16-18.48-0.32-36.96-0.48-55.44c0-53.85,5.54-93.58,40.08-112.32
	c7.2-2.48,14.4-4.96,21.6-7.44C772.16,584.32,772.56,584.32,772.96,584.32z M935.68,584.32c0.16,5.44,0.32,10.88,0.48,16.32
	c-30.63,14.79-40.27,28.58-44.88,69.36c-0.97,8.56-1.01,16.23,3.6,21.36c8.36,9.31,34.46,2.96,49.92,5.04
	c0.16,0.08,0.32,0.16,0.48,0.24c-0.08,20.88-0.16,41.76-0.24,62.64c-24-0.08-48-0.16-72-0.24c-0.08-14.72-0.16-29.44-0.24-44.16
	c0-51.21,1.32-94.39,30-116.4c9.26-7.11,20.26-8.12,31.44-14.16C934.72,584.32,935.2,584.32,935.68,584.32z M1033.6,674.32
	c21.48-0.43,21.46,28.45,2.88,31.68C1016.83,709.41,1012.87,680.18,1033.6,674.32z M1103.2,674.32
	c144.15-2.02,235.57,69.36,279.12,167.28c8.18,18.38,15.05,38.76,19.92,60.72c2.76,12.44,1.22,24.68,4.32,38.16
	c0.94,4.07,3.33,25.89,0.96,35.28c-2.24,14.16-4.48,28.32-6.72,42.48c-5.27,20.52-11.75,38.48-18.72,56.64
	c-21,54.72-75.54,105.94-125.28,132.72c-13.44,5.84-26.88,11.68-40.32,17.52c-6.19,2.42-16.55,2.53-20.88,6.96
	c-0.16,40.4-0.32,80.8-0.48,121.2c-1.76,5.97-6.8,10.39-11.76,12.24c-11.49,4.28-31.99-21.67-37.92-27.6
	c-32.72-32.56-65.44-65.12-98.16-97.68c-17.44,0-34.88,0-52.32,0c-41.84-0.16-83.68-0.32-125.52-0.48
	c-18.93-2.87-35.7-0.33-52.08-5.28c-28.22-8.53-53.44-16.04-77.04-28.32c-90.7-47.22-175.54-170.54-140.4-312.96
	c6.13-24.85,14.87-57.4,28.8-74.64c9.39-11.61,26.59-6.35,28.8,8.64c1.13,7.67-12.38,29.39-15.6,36.48
	c-6.96,15.32-10.94,33.44-14.4,51.6c-16.12,84.7,18.84,156.82,54,201.84c32.35,41.42,81.7,72.09,141.36,85.92
	c12.32,1.6,24.64,3.2,36.96,4.8c51.03,0.16,102.09,0.32,153.12,0.48c14.35,0,35.25-2.96,47.28,1.2
	c8.56,2.96,16.21,14.53,22.32,20.64c20.8,20.72,41.6,41.44,62.4,62.16c6.08,5.92,12.16,11.84,18.24,17.76
	c0.24-0.32,0.48-0.64,0.72-0.96c-0.85-16.88-3.43-89.05,1.92-98.4c5.57-9.74,40.51-15.64,52.8-20.4
	c13.1-5.07,26.74-12.06,38.16-19.44c62.8-40.61,133.01-128.57,117.36-241.68c-13.54-97.84-67.18-161.9-141.84-198.72
	c-22.38-11.04-48.22-18.33-77.28-22.56c-15.05-2.19-43.85,2.1-56.88-3.12C1081.47,698.12,1088.64,678.76,1103.2,674.32z
	 M803.44,832.96c104.79,0,209.61,0,314.4,0c20.4,0,40.8,0,61.2,0c7.6,0.32,15.2,0.64,22.8,0.96c4.85,2.01,11.02,8.53,9.84,16.32
	c-0.93,6.11-4.88,11.41-9.84,13.44c-8,0.32-16,0.64-24,0.96c-21.52,0-43.04,0-64.56,0c-74.23,0-148.49,0-222.72,0
	c-22.64,0-45.28,0-67.92,0c-8.24-0.32-16.48-0.64-24.72-0.96C780.6,856.5,787.42,838.05,803.44,832.96z M802.72,917.92
	c104.95,0,209.93,0,314.88,0c27.76,0.24,55.52,0.48,83.28,0.72c5.4,1.85,11.95,8.19,10.8,16.32c-0.85,5.98-4.64,11.64-9.6,13.44
	c-6.75,2.46-17.38,1.2-26.4,1.2c-20.88,0-41.76,0-62.64,0c-73.35,0-146.73,0-220.08,0c-22.48,0-44.96,0-67.44,0
	c-9.37,0-20.81,1.39-27.84-1.2C781.12,942.3,787.86,922.09,802.72,917.92z M803.2,1002.64c104.87,0,209.77,0,314.64,0
	c19.76,0,39.52,0,59.28,0c8.31,0,19.04-1.13,25.2,1.44c4.63,1.93,10.53,8.59,9.36,16.08c-1.01,6.45-5.06,11.49-10.56,13.44
	c-8.48,0.32-16.96,0.64-25.44,0.96c-20.8,0-41.6,0-62.4,0c-104.63-0.24-209.29-0.48-313.92-0.72c-11.14-3.2-15.11-20.06-5.28-27.6
	C797.12,1005.04,800.16,1003.84,803.2,1002.64z M987.28,1087.6c57.59,0,115.21,0,172.8,0c19.86,0,54.83-5.38,51.6,17.28
	c-2.82,19.73-30.6,14.64-52.56,14.64c-43.2,0-86.4,0-129.6,0c-14.48,0-35.78,3.23-48.24-0.96c-10.05-3.38-13.54-19.93-4.56-27.12
	C979.67,1089.08,982.98,1088.88,987.28,1087.6z M895.84,1087.84c21.94-0.34,21.99,30.94,1.68,31.68
	C878.19,1120.22,875.08,1094.35,895.84,1087.84z"/>
</svg>
