<svg id="Layer_1" data-name="Layer 1" xmlns="http://www.w3.org/2000/svg" xmlns:xlink="http://www.w3.org/1999/xlink" viewBox="0 0 250 250"><defs><style>.cls-1{fill-rule:evenodd;fill:url(#linear-gradient);}</style><linearGradient id="linear-gradient" x1="-1231.28" y1="102.32" x2="-1028.4" y2="102.32" gradientTransform="matrix(1, 0, 0, -1, 1255, 229)" gradientUnits="userSpaceOnUse"><stop offset="0" stop-color="blue"/><stop offset="1" stop-color="#e600ff"/></linearGradient></defs><title>iconsForMenu</title><path class="cls-1" d="M71,25.36c2.29,0,3.49,0,4.59,1.13,1.64,1.7,1.91,14.93.35,17.12s-6.26,1.42-8.1,4c-.9,1.24-2.41,3.94-2,6,4.34,1.54,8.52-1.59,11.57,2a6.81,6.81,0,0,1,1.55,3l.17,14.07c0,2.69.4,6.21-.35,8.34a6.77,6.77,0,0,1-3,3.46c-1.67,1-23.44,1.36-26.18.48a6.72,6.72,0,0,1-3.51-2.74c-1.84-3-.9-10.37-.9-14.91,0-15.65.94-27.63,9-35a28.69,28.69,0,0,1,11.69-6.08l5-.9Zm40.42,0c2.3,0,3.77.06,4.77,1.31,1.51,1.91,1.66,15.17.06,17.11-1.77,2.15-6.16,1.23-8,3.94-.81,1.16-2.41,4-2,5.9l.12.12c3.54,0,8.2-.47,10.37.95a6.92,6.92,0,0,1,2.69,4.06c.82,3.1.27,21.78-.72,23.43-2.7,4.49-12.27,3.1-19.32,3.1-3.72,0-8.7.53-11-1-4.07-2.78-2.8-12-2.8-18.72,0-17.92,2.35-30.19,13.71-36.54a28.82,28.82,0,0,1,7.46-2.8C108,25.9,110.72,25.92,111.41,25.36ZM69.55,37.46l-4.47,2.13c-4.76,2.73-6.58,8.19-7.39,15-.27,2.31-.37,4.76,1,6,2.32,2,8.39.72,12.28,1.14l.12,15.5-17.89.18L53.1,63.56c0-13.38,1.38-23.25,10-27.91l5.36-1.84h.3Zm39.59-3.65.82,3.72c-8.16,3.8-10.67,7.12-11.85,17.56-.24,2.13-.25,4,.9,5.31,2.09,2.32,8.65.71,12.48,1.26l0,.05-.06,15.56-17.89-.06-.06-11c0-12.72.33-23.45,7.45-28.92,2.3-1.76,5-2,7.81-3.51Zm24.33,22.37c5.33-.1,5.33,7.07.71,7.87C129.3,64.9,128.32,57.64,133.47,56.18Zm17.29,0c35.8-.5,58.51,17.23,69.33,41.56A79.37,79.37,0,0,1,225,112.82c.68,3.09.3,6.13,1.07,9.48.24,1,.83,6.43.24,8.76l-1.67,10.56A125.9,125.9,0,0,1,220,155.68c-5.22,13.6-18.76,26.32-31.12,33l-10,4.36c-1.53.6-4.11.62-5.18,1.72l-.12,30.11a4.87,4.87,0,0,1-2.92,3c-2.86,1.07-7.95-5.38-9.42-6.85l-24.39-24.27h-13l-31.18-.12c-4.71-.71-8.87-.08-12.94-1.31-7-2.12-13.27-4-19.14-7C38.08,176.57,17,145.93,25.74,110.55c1.52-6.17,3.69-14.25,7.15-18.54A4,4,0,0,1,40,94.16c.29,1.9-3.07,7.3-3.87,9.06A57.7,57.7,0,0,0,32.59,116c-4,21,4.68,39,13.42,50.14,8.2,10.5,20.79,18.22,36,21.55l9.33,1,37,.11c3.56,0,8.76-.73,11.74.3,2.13.74,4,3.61,5.55,5.13l15.5,15.44,4.52,4.4.2-.09c-.21-3.93-.88-22.23.47-24.58s10.06-3.89,13.11-5.07a53.47,53.47,0,0,0,9.48-4.83c15.6-10.09,33-31.94,29.15-60-3.36-24.31-16.68-40.22-35.23-49.37a64.16,64.16,0,0,0-19.2-5.6c-3.74-.54-10.89.52-14.13-.78C145.36,62.09,147.14,57.29,150.76,56.18ZM76.29,95.66h93.3l5.67.24a4.09,4.09,0,0,1,2.44,4.1,4.35,4.35,0,0,1-2.44,3.37l-6,.24H81.06l-6.14-.24C70.62,101.57,72.31,96.94,76.29,95.66Zm-.18,21.11h78.22L175,117a4,4,0,0,1,2.68,4.1,4.2,4.2,0,0,1-2.38,3.37c-1.68.62-4.32.3-6.56.3h-87c-2.33,0-5.17.35-6.92-.3C70.75,122.89,72.42,117.82,76.11,116.77Zm0,20.87h93.12c2.07,0,4.74-.28,6.27.36a4,4,0,0,1,2.34,4,4.15,4.15,0,0,1-2.63,3.35l-6.34.24H153.33l-78.18-.18c-2.77-.8-3.76-5-1.31-6.87Zm45.78,21.12h43c4.94,0,13.65-1.34,12.85,4.3-.7,4.91-7.62,3.64-13.09,3.64H132.41c-3.6,0-8.91.81-12-.23-2.5-.85-3.37-5-1.13-6.76A6.88,6.88,0,0,1,121.89,158.76Zm-22.64.15c5.45-.09,5.46,7.68.41,7.87C94.86,167,94.09,160.52,99.25,158.91Z"/></svg>